<svg xmlns="http://www.w3.org/2000/svg" xmlns:xlink="http://www.w3.org/1999/xlink" width="2000" zoomAndPan="magnify" viewBox="0 0 1500 1499.999933" height="2000" preserveAspectRatio="xMidYMid meet" version="1.0"><defs><g/><clipPath id="6257397d1f"><path d="M 0 366.117188 L 1500 366.117188 L 1500 1133.882812 L 0 1133.882812 Z M 0 366.117188 " clip-rule="nonzero"/></clipPath><clipPath id="5aaaf05623"><path d="M 1500 366.117188 L 0 366.117188 L 128.261719 750 L 0 1133.882812 L 1500 1133.882812 L 1371.738281 750 Z M 1500 366.117188 " clip-rule="nonzero"/></clipPath><clipPath id="bff93e2914"><path d="M 0 0.117188 L 1500 0.117188 L 1500 767.882812 L 0 767.882812 Z M 0 0.117188 " clip-rule="nonzero"/></clipPath><clipPath id="c33ca53320"><path d="M 1500 0.117188 L 0 0.117188 L 128.261719 384 L 0 767.882812 L 1500 767.882812 L 1371.738281 384 Z M 1500 0.117188 " clip-rule="nonzero"/></clipPath><clipPath id="f85e54dea6"><rect x="0" width="1500" y="0" height="768"/></clipPath></defs><g clip-path="url(#6257397d1f)"><g clip-path="url(#5aaaf05623)"><g transform="matrix(1, 0, 0, 1, 0, 366)"><g clip-path="url(#f85e54dea6)"><g clip-path="url(#bff93e2914)"><g clip-path="url(#c33ca53320)"><path fill="#061c13" d="M 0 0.117188 L 1499.546875 0.117188 L 1499.546875 767.882812 L 0 767.882812 Z M 0 0.117188 " fill-opacity="1" fill-rule="nonzero"/></g></g></g></g></g></g><g fill="#fff8e5" fill-opacity="1"><g transform="translate(540.408049, 694.49992)"><g><path d="M 115.71875 -132.421875 L 117.1875 -101.375 L 113.484375 -101.375 C 112.765625 -106.84375 111.785156 -110.75 110.546875 -113.09375 C 108.523438 -116.863281 105.835938 -119.644531 102.484375 -121.4375 C 99.140625 -123.226562 94.734375 -124.125 89.265625 -124.125 L 70.609375 -124.125 L 70.609375 -22.953125 C 70.609375 -14.816406 71.488281 -9.738281 73.25 -7.71875 C 75.71875 -4.976562 79.523438 -3.609375 84.671875 -3.609375 L 89.265625 -3.609375 L 89.265625 0 L 33.109375 0 L 33.109375 -3.609375 L 37.796875 -3.609375 C 43.390625 -3.609375 47.359375 -5.300781 49.703125 -8.6875 C 51.140625 -10.769531 51.859375 -15.523438 51.859375 -22.953125 L 51.859375 -124.125 L 35.9375 -124.125 C 29.75 -124.125 25.351562 -123.664062 22.75 -122.75 C 19.363281 -121.519531 16.46875 -119.144531 14.0625 -115.625 C 11.65625 -112.113281 10.222656 -107.363281 9.765625 -101.375 L 6.0625 -101.375 L 7.625 -132.421875 Z M 115.71875 -132.421875 "/></g></g></g><g fill="#fff8e5" fill-opacity="1"><g transform="translate(677.77296, 694.49992)"><g><path d="M 41.109375 -71 L 102.640625 -71 L 102.640625 -108.890625 C 102.640625 -115.660156 102.21875 -120.117188 101.375 -122.265625 C 100.71875 -123.890625 99.347656 -125.289062 97.265625 -126.46875 C 94.460938 -128.03125 91.5 -128.8125 88.375 -128.8125 L 83.6875 -128.8125 L 83.6875 -132.421875 L 140.328125 -132.421875 L 140.328125 -128.8125 L 135.640625 -128.8125 C 132.515625 -128.8125 129.554688 -128.0625 126.765625 -126.5625 C 124.679688 -125.519531 123.265625 -123.941406 122.515625 -121.828125 C 121.765625 -119.710938 121.390625 -115.398438 121.390625 -108.890625 L 121.390625 -23.4375 C 121.390625 -16.726562 121.8125 -12.300781 122.65625 -10.15625 C 123.3125 -8.53125 124.644531 -7.128906 126.65625 -5.953125 C 129.519531 -4.390625 132.515625 -3.609375 135.640625 -3.609375 L 140.328125 -3.609375 L 140.328125 0 L 83.6875 0 L 83.6875 -3.609375 L 88.375 -3.609375 C 93.78125 -3.609375 97.722656 -5.207031 100.203125 -8.40625 C 101.828125 -10.488281 102.640625 -15.5 102.640625 -23.4375 L 102.640625 -63.765625 L 41.109375 -63.765625 L 41.109375 -23.4375 C 41.109375 -16.726562 41.535156 -12.300781 42.390625 -10.15625 C 43.035156 -8.53125 44.398438 -7.128906 46.484375 -5.953125 C 49.285156 -4.390625 52.25 -3.609375 55.375 -3.609375 L 60.15625 -3.609375 L 60.15625 0 L 3.421875 0 L 3.421875 -3.609375 L 8.109375 -3.609375 C 13.578125 -3.609375 17.546875 -5.207031 20.015625 -8.40625 C 21.578125 -10.488281 22.359375 -15.5 22.359375 -23.4375 L 22.359375 -108.890625 C 22.359375 -115.660156 21.9375 -120.117188 21.09375 -122.265625 C 20.445312 -123.890625 19.113281 -125.289062 17.09375 -126.46875 C 14.226562 -128.03125 11.234375 -128.8125 8.109375 -128.8125 L 3.421875 -128.8125 L 3.421875 -132.421875 L 60.15625 -132.421875 L 60.15625 -128.8125 L 55.375 -128.8125 C 52.25 -128.8125 49.285156 -128.0625 46.484375 -126.5625 C 44.460938 -125.519531 43.0625 -123.941406 42.28125 -121.828125 C 41.5 -119.710938 41.109375 -115.398438 41.109375 -108.890625 Z M 41.109375 -71 "/></g></g></g><g fill="#fff8e5" fill-opacity="1"><g transform="translate(837.402946, 694.49992)"><g><path d="M 41.796875 -125.203125 L 41.796875 -72.859375 L 70.90625 -72.859375 C 78.457031 -72.859375 83.5 -73.992188 86.03125 -76.265625 C 89.414062 -79.265625 91.304688 -84.539062 91.703125 -92.09375 L 95.3125 -92.09375 L 95.3125 -46 L 91.703125 -46 C 90.785156 -52.445312 89.875 -56.582031 88.96875 -58.40625 C 87.789062 -60.675781 85.867188 -62.460938 83.203125 -63.765625 C 80.535156 -65.066406 76.4375 -65.71875 70.90625 -65.71875 L 41.796875 -65.71875 L 41.796875 -22.078125 C 41.796875 -16.210938 42.054688 -12.644531 42.578125 -11.375 C 43.097656 -10.101562 44.007812 -9.09375 45.3125 -8.34375 C 46.613281 -7.601562 49.085938 -7.234375 52.734375 -7.234375 L 75.203125 -7.234375 C 82.679688 -7.234375 88.113281 -7.753906 91.5 -8.796875 C 94.882812 -9.835938 98.140625 -11.882812 101.265625 -14.9375 C 105.304688 -18.976562 109.441406 -25.066406 113.671875 -33.203125 L 117.578125 -33.203125 L 106.15625 0 L 4.109375 0 L 4.109375 -3.609375 L 8.796875 -3.609375 C 11.921875 -3.609375 14.878906 -4.359375 17.671875 -5.859375 C 19.753906 -6.898438 21.171875 -8.460938 21.921875 -10.546875 C 22.671875 -12.628906 23.046875 -16.894531 23.046875 -23.34375 L 23.046875 -109.375 C 23.046875 -117.769531 22.203125 -122.945312 20.515625 -124.90625 C 18.171875 -127.507812 14.265625 -128.8125 8.796875 -128.8125 L 4.109375 -128.8125 L 4.109375 -132.421875 L 106.15625 -132.421875 L 107.625 -103.421875 L 103.8125 -103.421875 C 102.445312 -110.390625 100.929688 -115.175781 99.265625 -117.78125 C 97.609375 -120.382812 95.148438 -122.367188 91.890625 -123.734375 C 89.285156 -124.710938 84.695312 -125.203125 78.125 -125.203125 Z M 41.796875 -125.203125 "/></g></g></g><g fill="#fff8e5" fill-opacity="1"><g transform="translate(246.829949, 940.499899)"><g><path d="M 41.015625 -62.015625 L 41.015625 -23.4375 C 41.015625 -15.101562 41.925781 -9.925781 43.75 -7.90625 C 46.226562 -5.039062 49.972656 -3.609375 54.984375 -3.609375 L 60.0625 -3.609375 L 60.0625 0 L 3.328125 0 L 3.328125 -3.609375 L 8.296875 -3.609375 C 13.898438 -3.609375 17.90625 -5.429688 20.3125 -9.078125 C 21.613281 -11.097656 22.265625 -15.882812 22.265625 -23.4375 L 22.265625 -108.984375 C 22.265625 -117.316406 21.382812 -122.492188 19.625 -124.515625 C 17.09375 -127.378906 13.316406 -128.8125 8.296875 -128.8125 L 3.328125 -128.8125 L 3.328125 -132.421875 L 51.859375 -132.421875 C 63.703125 -132.421875 73.039062 -131.195312 79.875 -128.75 C 86.71875 -126.3125 92.484375 -122.195312 97.171875 -116.40625 C 101.859375 -110.613281 104.203125 -103.742188 104.203125 -95.796875 C 104.203125 -84.992188 100.632812 -76.207031 93.5 -69.4375 C 86.375 -62.664062 76.300781 -59.28125 63.28125 -59.28125 C 60.09375 -59.28125 56.640625 -59.503906 52.921875 -59.953125 C 49.210938 -60.410156 45.242188 -61.097656 41.015625 -62.015625 Z M 41.015625 -67.578125 C 44.460938 -66.929688 47.519531 -66.441406 50.1875 -66.109375 C 52.863281 -65.785156 55.144531 -65.625 57.03125 -65.625 C 63.800781 -65.625 69.644531 -68.242188 74.5625 -73.484375 C 79.476562 -78.722656 81.9375 -85.507812 81.9375 -93.84375 C 81.9375 -99.570312 80.765625 -104.894531 78.421875 -109.8125 C 76.078125 -114.726562 72.753906 -118.40625 68.453125 -120.84375 C 64.160156 -123.289062 59.28125 -124.515625 53.8125 -124.515625 C 50.488281 -124.515625 46.222656 -123.894531 41.015625 -122.65625 Z M 41.015625 -67.578125 "/></g></g></g><g fill="#fff8e5" fill-opacity="1"><g transform="translate(354.898719, 940.499899)"><g><path d="M 91.5 -44.34375 L 40.234375 -44.34375 L 31.25 -23.4375 C 29.039062 -18.289062 27.9375 -14.453125 27.9375 -11.921875 C 27.9375 -9.898438 28.894531 -8.125 30.8125 -6.59375 C 32.726562 -5.0625 36.878906 -4.066406 43.265625 -3.609375 L 43.265625 0 L 1.5625 0 L 1.5625 -3.609375 C 7.09375 -4.585938 10.675781 -5.859375 12.3125 -7.421875 C 15.625 -10.546875 19.300781 -16.894531 23.34375 -26.46875 L 69.921875 -135.453125 L 73.34375 -135.453125 L 119.4375 -25.296875 C 123.144531 -16.441406 126.507812 -10.695312 129.53125 -8.0625 C 132.5625 -5.425781 136.78125 -3.941406 142.1875 -3.609375 L 142.1875 0 L 89.9375 0 L 89.9375 -3.609375 C 95.21875 -3.867188 98.785156 -4.75 100.640625 -6.25 C 102.492188 -7.75 103.421875 -9.570312 103.421875 -11.71875 C 103.421875 -14.582031 102.117188 -19.109375 99.515625 -25.296875 Z M 88.765625 -51.5625 L 66.3125 -105.078125 L 43.265625 -51.5625 Z M 88.765625 -51.5625 "/></g></g></g><g fill="#fff8e5" fill-opacity="1"><g transform="translate(514.528705, 940.499899)"><g><path d="M 135.15625 0 L 99.8125 0 L 54.984375 -61.921875 C 51.660156 -61.785156 48.957031 -61.71875 46.875 -61.71875 C 46.03125 -61.71875 45.117188 -61.734375 44.140625 -61.765625 C 43.160156 -61.796875 42.148438 -61.847656 41.109375 -61.921875 L 41.109375 -23.4375 C 41.109375 -15.101562 42.019531 -9.925781 43.84375 -7.90625 C 46.320312 -5.039062 50.035156 -3.609375 54.984375 -3.609375 L 60.15625 -3.609375 L 60.15625 0 L 3.421875 0 L 3.421875 -3.609375 L 8.40625 -3.609375 C 14 -3.609375 18 -5.429688 20.40625 -9.078125 C 21.78125 -11.097656 22.46875 -15.882812 22.46875 -23.4375 L 22.46875 -108.984375 C 22.46875 -117.316406 21.554688 -122.492188 19.734375 -124.515625 C 17.191406 -127.378906 13.414062 -128.8125 8.40625 -128.8125 L 3.421875 -128.8125 L 3.421875 -132.421875 L 51.65625 -132.421875 C 65.71875 -132.421875 76.085938 -131.394531 82.765625 -129.34375 C 89.441406 -127.289062 95.101562 -123.515625 99.75 -118.015625 C 104.40625 -112.515625 106.734375 -105.957031 106.734375 -98.34375 C 106.734375 -90.207031 104.082031 -83.144531 98.78125 -77.15625 C 93.476562 -71.164062 85.257812 -66.929688 74.125 -64.453125 L 101.46875 -26.46875 C 107.71875 -17.738281 113.085938 -11.941406 117.578125 -9.078125 C 122.066406 -6.210938 127.925781 -4.390625 135.15625 -3.609375 Z M 41.109375 -68.0625 C 42.347656 -68.0625 43.421875 -68.046875 44.328125 -68.015625 C 45.242188 -67.984375 45.992188 -67.96875 46.578125 -67.96875 C 59.210938 -67.96875 68.734375 -70.703125 75.140625 -76.171875 C 81.554688 -81.640625 84.765625 -88.609375 84.765625 -97.078125 C 84.765625 -105.335938 82.175781 -112.054688 77 -117.234375 C 71.820312 -122.410156 64.972656 -125 56.453125 -125 C 52.671875 -125 47.554688 -124.378906 41.109375 -123.140625 Z M 41.109375 -68.0625 "/></g></g></g><g fill="#fff8e5" fill-opacity="1"><g transform="translate(663.123815, 940.499899)"><g><path d="M 114.65625 -36.625 L 117.875 -35.9375 L 106.546875 0 L 4 0 L 4 -3.609375 L 8.984375 -3.609375 C 14.585938 -3.609375 18.59375 -5.429688 21 -9.078125 C 22.363281 -11.160156 23.046875 -15.976562 23.046875 -23.53125 L 23.046875 -108.984375 C 23.046875 -117.253906 22.132812 -122.429688 20.3125 -124.515625 C 17.769531 -127.378906 13.992188 -128.8125 8.984375 -128.8125 L 4 -128.8125 L 4 -132.421875 L 63.96875 -132.421875 L 63.96875 -128.8125 C 56.9375 -128.875 52.003906 -128.222656 49.171875 -126.859375 C 46.335938 -125.492188 44.398438 -123.769531 43.359375 -121.6875 C 42.316406 -119.601562 41.796875 -114.617188 41.796875 -106.734375 L 41.796875 -23.53125 C 41.796875 -18.132812 42.316406 -14.425781 43.359375 -12.40625 C 44.140625 -11.039062 45.34375 -10.03125 46.96875 -9.375 C 48.601562 -8.726562 53.679688 -8.40625 62.203125 -8.40625 L 71.875 -8.40625 C 82.03125 -8.40625 89.160156 -9.148438 93.265625 -10.640625 C 97.367188 -12.140625 101.113281 -14.789062 104.5 -18.59375 C 107.882812 -22.40625 111.269531 -28.414062 114.65625 -36.625 Z M 114.65625 -36.625 "/></g></g></g><g fill="#fff8e5" fill-opacity="1"><g transform="translate(800.488703, 940.499899)"><g><path d="M 73.140625 -135.453125 C 90.328125 -135.453125 105.21875 -128.925781 117.8125 -115.875 C 130.414062 -102.820312 136.71875 -86.53125 136.71875 -67 C 136.71875 -46.875 130.367188 -30.171875 117.671875 -16.890625 C 104.984375 -3.609375 89.617188 3.03125 71.578125 3.03125 C 53.347656 3.03125 38.03125 -3.445312 25.625 -16.40625 C 13.226562 -29.363281 7.03125 -46.128906 7.03125 -66.703125 C 7.03125 -87.734375 14.191406 -104.890625 28.515625 -118.171875 C 40.953125 -129.691406 55.828125 -135.453125 73.140625 -135.453125 Z M 71.296875 -128.328125 C 59.441406 -128.328125 49.9375 -123.929688 42.78125 -115.140625 C 33.851562 -104.203125 29.390625 -88.1875 29.390625 -67.09375 C 29.390625 -45.476562 34.015625 -28.84375 43.265625 -17.1875 C 50.359375 -8.332031 59.734375 -3.90625 71.390625 -3.90625 C 83.828125 -3.90625 94.097656 -8.753906 102.203125 -18.453125 C 110.304688 -28.160156 114.359375 -43.460938 114.359375 -64.359375 C 114.359375 -87.015625 109.898438 -103.910156 100.984375 -115.046875 C 93.816406 -123.898438 83.921875 -128.328125 71.296875 -128.328125 Z M 71.296875 -128.328125 "/></g></g></g><g fill="#fff8e5" fill-opacity="1"><g transform="translate(960.118712, 940.499899)"><g><path d="M 95.40625 -128.8125 L 95.40625 -132.421875 L 142.28125 -132.421875 L 142.28125 -128.8125 L 137.3125 -128.8125 C 132.101562 -128.8125 128.097656 -126.628906 125.296875 -122.265625 C 123.929688 -120.242188 123.25 -115.554688 123.25 -108.203125 L 123.25 -54.5 C 123.25 -41.21875 121.925781 -30.910156 119.28125 -23.578125 C 116.644531 -16.253906 111.46875 -9.972656 103.75 -4.734375 C 96.039062 0.503906 85.546875 3.125 72.265625 3.125 C 57.816406 3.125 46.847656 0.617188 39.359375 -4.390625 C 31.867188 -9.410156 26.5625 -16.148438 23.4375 -24.609375 C 21.351562 -30.398438 20.3125 -41.273438 20.3125 -57.234375 L 20.3125 -108.984375 C 20.3125 -117.117188 19.1875 -122.457031 16.9375 -125 C 14.695312 -127.539062 11.070312 -128.8125 6.0625 -128.8125 L 1.078125 -128.8125 L 1.078125 -132.421875 L 58.296875 -132.421875 L 58.296875 -128.8125 L 53.21875 -128.8125 C 47.75 -128.8125 43.84375 -127.085938 41.5 -123.640625 C 39.875 -121.296875 39.0625 -116.410156 39.0625 -108.984375 L 39.0625 -51.265625 C 39.0625 -46.128906 39.53125 -40.238281 40.46875 -33.59375 C 41.414062 -26.957031 43.125 -21.78125 45.59375 -18.0625 C 48.070312 -14.351562 51.640625 -11.296875 56.296875 -8.890625 C 60.953125 -6.484375 66.664062 -5.28125 73.4375 -5.28125 C 82.09375 -5.28125 89.835938 -7.164062 96.671875 -10.9375 C 103.515625 -14.71875 108.1875 -19.550781 110.6875 -25.4375 C 113.195312 -31.332031 114.453125 -41.3125 114.453125 -55.375 L 114.453125 -108.984375 C 114.453125 -117.253906 113.539062 -122.429688 111.71875 -124.515625 C 109.175781 -127.378906 105.398438 -128.8125 100.390625 -128.8125 Z M 95.40625 -128.8125 "/></g></g></g><g fill="#fff8e5" fill-opacity="1"><g transform="translate(1119.748675, 940.499899)"><g><path d="M 135.15625 0 L 99.8125 0 L 54.984375 -61.921875 C 51.660156 -61.785156 48.957031 -61.71875 46.875 -61.71875 C 46.03125 -61.71875 45.117188 -61.734375 44.140625 -61.765625 C 43.160156 -61.796875 42.148438 -61.847656 41.109375 -61.921875 L 41.109375 -23.4375 C 41.109375 -15.101562 42.019531 -9.925781 43.84375 -7.90625 C 46.320312 -5.039062 50.035156 -3.609375 54.984375 -3.609375 L 60.15625 -3.609375 L 60.15625 0 L 3.421875 0 L 3.421875 -3.609375 L 8.40625 -3.609375 C 14 -3.609375 18 -5.429688 20.40625 -9.078125 C 21.78125 -11.097656 22.46875 -15.882812 22.46875 -23.4375 L 22.46875 -108.984375 C 22.46875 -117.316406 21.554688 -122.492188 19.734375 -124.515625 C 17.191406 -127.378906 13.414062 -128.8125 8.40625 -128.8125 L 3.421875 -128.8125 L 3.421875 -132.421875 L 51.65625 -132.421875 C 65.71875 -132.421875 76.085938 -131.394531 82.765625 -129.34375 C 89.441406 -127.289062 95.101562 -123.515625 99.75 -118.015625 C 104.40625 -112.515625 106.734375 -105.957031 106.734375 -98.34375 C 106.734375 -90.207031 104.082031 -83.144531 98.78125 -77.15625 C 93.476562 -71.164062 85.257812 -66.929688 74.125 -64.453125 L 101.46875 -26.46875 C 107.71875 -17.738281 113.085938 -11.941406 117.578125 -9.078125 C 122.066406 -6.210938 127.925781 -4.390625 135.15625 -3.609375 Z M 41.109375 -68.0625 C 42.347656 -68.0625 43.421875 -68.046875 44.328125 -68.015625 C 45.242188 -67.984375 45.992188 -67.96875 46.578125 -67.96875 C 59.210938 -67.96875 68.734375 -70.703125 75.140625 -76.171875 C 81.554688 -81.640625 84.765625 -88.609375 84.765625 -97.078125 C 84.765625 -105.335938 82.175781 -112.054688 77 -117.234375 C 71.820312 -122.410156 64.972656 -125 56.453125 -125 C 52.671875 -125 47.554688 -124.378906 41.109375 -123.140625 Z M 41.109375 -68.0625 "/></g></g></g></svg>