<svg xmlns="http://www.w3.org/2000/svg" xmlns:xlink="http://www.w3.org/1999/xlink" width="2000" zoomAndPan="magnify" viewBox="0 0 1500 1499.999933" height="2000" preserveAspectRatio="xMidYMid meet" version="1.0"><defs><g/><clipPath id="f760a18fc3"><path d="M 259.316406 46.6875 L 1240.683594 46.6875 L 1240.683594 1453.566406 L 259.316406 1453.566406 Z M 259.316406 46.6875 " clip-rule="nonzero"/></clipPath><clipPath id="f51f461152"><path d="M 1240.683594 174.265625 L 1240.683594 1453.3125 L 750 1198.15625 L 259.316406 1453.3125 L 259.316406 174.265625 C 259.316406 105.570312 318.199219 46.6875 386.894531 46.6875 L 1113.105469 46.6875 C 1181.800781 46.6875 1240.683594 102.296875 1240.683594 177.535156 Z M 1240.683594 174.265625 " clip-rule="nonzero"/></clipPath><clipPath id="e5a2fb562f"><path d="M 0.316406 0.6875 L 981.683594 0.6875 L 981.683594 1407.441406 L 0.316406 1407.441406 Z M 0.316406 0.6875 " clip-rule="nonzero"/></clipPath><clipPath id="9f8fcfad1b"><path d="M 981.683594 128.265625 L 981.683594 1407.3125 L 491 1152.15625 L 0.316406 1407.3125 L 0.316406 128.265625 C 0.316406 59.570312 59.199219 0.6875 127.894531 0.6875 L 854.105469 0.6875 C 922.800781 0.6875 981.683594 56.296875 981.683594 131.535156 Z M 981.683594 128.265625 " clip-rule="nonzero"/></clipPath><clipPath id="3436059198"><rect x="0" width="982" y="0" height="1408"/></clipPath><clipPath id="d0300e2055"><rect x="0" width="658" y="0" height="1140"/></clipPath></defs><g clip-path="url(#f760a18fc3)"><g clip-path="url(#f51f461152)"><g transform="matrix(1, 0, 0, 1, 259, 46)"><g clip-path="url(#3436059198)"><g clip-path="url(#e5a2fb562f)"><g clip-path="url(#9f8fcfad1b)"><path fill="#061c13" d="M 0.316406 0.6875 L 981.683594 0.6875 L 981.683594 1407.566406 L 0.316406 1407.566406 Z M 0.316406 0.6875 " fill-opacity="1" fill-rule="nonzero"/></g></g></g></g></g></g><g transform="matrix(1, 0, 0, 1, 464, 247)"><g clip-path="url(#d0300e2055)"><g fill="#fff8e5" fill-opacity="1"><g transform="translate(1.255419, 766.282192)"><g><path d="M 315.484375 -697.015625 C 374.710938 -697.015625 423.304688 -692.078125 461.265625 -682.203125 C 499.222656 -672.335938 529.210938 -658.289062 551.234375 -640.0625 C 570.972656 -623.363281 586.347656 -604.003906 597.359375 -581.984375 C 608.367188 -559.960938 613.875 -535.671875 613.875 -509.109375 C 613.875 -484.804688 608.554688 -461.078125 597.921875 -437.921875 C 587.296875 -414.765625 570.972656 -393.691406 548.953125 -374.703125 C 526.929688 -355.722656 503.015625 -341.675781 477.203125 -332.5625 C 451.390625 -323.457031 425.957031 -318.90625 400.90625 -318.90625 C 390.269531 -318.90625 376.410156 -320.234375 359.328125 -322.890625 C 342.242188 -325.546875 323.070312 -331.050781 301.8125 -339.40625 L 307.515625 -361.046875 C 321.941406 -354.972656 334.28125 -351.175781 344.53125 -349.65625 C 354.78125 -348.132812 365.21875 -347.375 375.84375 -347.375 C 397.101562 -347.375 417.222656 -351.359375 436.203125 -359.328125 C 455.191406 -367.304688 472.28125 -378.507812 487.46875 -392.9375 C 503.414062 -408.125 515.179688 -425.585938 522.765625 -445.328125 C 530.347656 -465.066406 534.140625 -484.425781 534.140625 -503.40625 C 534.140625 -553.507812 517.4375 -593.9375 484.03125 -624.6875 C 450.632812 -655.4375 404.703125 -670.8125 346.234375 -670.8125 C 340.160156 -652.59375 334.46875 -631.523438 329.15625 -607.609375 C 323.84375 -583.691406 318.144531 -559.582031 312.0625 -535.28125 L 233.484375 -193.625 C 226.648438 -164.769531 220.765625 -138.757812 215.828125 -115.59375 C 210.890625 -92.4375 206.144531 -66.429688 201.59375 -37.578125 C 217.539062 -30.742188 232.726562 -26.378906 247.15625 -24.484375 C 261.582031 -22.585938 272.585938 -21.640625 280.171875 -21.640625 C 295.359375 -21.640625 307.695312 -23.15625 317.1875 -26.1875 C 326.6875 -29.226562 339.785156 -34.546875 356.484375 -42.140625 L 354.203125 -17.078125 C 343.578125 -11.765625 331.429688 -7.019531 317.765625 -2.84375 C 304.097656 1.332031 291.191406 3.421875 279.046875 3.421875 C 243.359375 3.421875 219.4375 2.28125 207.28125 0 C 201.207031 -1.519531 183.363281 -2.28125 153.75 -2.28125 C 124.144531 -2.28125 82.003906 -1.140625 27.328125 1.140625 L 27.328125 -22.78125 C 45.554688 -24.300781 61.125 -26.195312 74.03125 -28.46875 C 86.9375 -30.75 97.1875 -34.925781 104.78125 -41 C 110.851562 -46.3125 117.6875 -59.976562 125.28125 -82 C 132.875 -104.019531 140.847656 -134.015625 149.203125 -171.984375 L 222.09375 -487.46875 C 224.375 -497.332031 226.84375 -508.90625 229.5 -522.1875 C 232.15625 -535.476562 235.378906 -550.851562 239.171875 -568.3125 C 246.003906 -603.238281 249.421875 -626.398438 249.421875 -637.796875 C 249.421875 -650.703125 245.625 -659.238281 238.03125 -663.40625 C 230.445312 -667.582031 215.644531 -670.429688 193.625 -671.953125 C 186.03125 -672.710938 177.484375 -673.09375 167.984375 -673.09375 C 158.492188 -673.09375 148.4375 -673.09375 137.8125 -673.09375 L 144.640625 -697.015625 Z M 315.484375 -697.015625 "/></g></g></g></g></g></svg>